<svg width="32" height="32" viewBox="0 0 32 32" fill="none" xmlns="http://www.w3.org/2000/svg">
<path opacity="0.2" d="M16 29.3333C23.3638 29.3333 29.3333 23.3638 29.3333 16C29.3333 8.63619 23.3638 2.66666 16 2.66666C8.63621 2.66666 2.66667 8.63619 2.66667 16C2.66667 23.3638 8.63621 29.3333 16 29.3333Z" fill="#ED2024"/>
<path d="M17.4133 16L20.48 12.9333C20.8667 12.5467 20.8667 11.9067 20.48 11.52C20.0933 11.1333 19.4533 11.1333 19.0667 11.52L16 14.5867L12.9333 11.52C12.5467 11.1333 11.9067 11.1333 11.52 11.52C11.1333 11.9067 11.1333 12.5467 11.52 12.9333L14.5867 16L11.52 19.0667C11.1333 19.4533 11.1333 20.0933 11.52 20.48C11.72 20.68 11.9733 20.7733 12.2267 20.7733C12.48 20.7733 12.7333 20.68 12.9333 20.48L16 17.4133L19.0667 20.48C19.2667 20.68 19.52 20.7733 19.7733 20.7733C20.0267 20.7733 20.28 20.68 20.48 20.48C20.8667 20.0933 20.8667 19.4533 20.48 19.0667L17.4133 16Z" fill="#ED2024"/>
</svg>
