<svg width="36" height="36" viewBox="0 0 36 36" fill="none" xmlns="http://www.w3.org/2000/svg">
<path opacity="0.4" d="M33 18C33 22.14 29.64 25.5 25.5 25.5C25.5 21.36 22.14 18 18 18C22.14 18 25.5 14.64 25.5 10.5C29.64 10.5 33 13.86 33 18Z" fill="#CDCDCD"/>
<path d="M25.5 25.5C21.36 25.5 18 22.14 18 18C22.14 18 25.5 21.36 25.5 25.5Z" fill="#CDCDCD"/>
<path opacity="0.4" d="M25.5 25.5C25.5 29.64 22.14 33 18 33C13.86 33 10.5 29.64 10.5 25.5C14.64 25.5 18 22.14 18 18C18 22.14 21.36 25.5 25.5 25.5Z" fill="#CDCDCD"/>
<path d="M25.5 10.5C25.5 14.64 22.14 18 18 18C18 13.86 21.36 10.5 25.5 10.5Z" fill="#CDCDCD"/>
<path opacity="0.4" d="M25.5 10.5C21.36 10.5 18 13.86 18 18C18 13.86 14.64 10.5 10.5 10.5C10.5 6.36 13.86 3 18 3C22.14 3 25.5 6.36 25.5 10.5Z" fill="#CDCDCD"/>
<path d="M18 18C18 22.14 14.64 25.5 10.5 25.5C10.5 21.36 13.86 18 18 18Z" fill="#CDCDCD"/>
<path d="M18 18C13.86 18 10.5 14.64 10.5 10.5C14.64 10.5 18 13.86 18 18Z" fill="#CDCDCD"/>
<path opacity="0.4" d="M18 18C13.86 18 10.5 21.36 10.5 25.5C6.36 25.5 3 22.14 3 18C3 13.86 6.36 10.5 10.5 10.5C10.5 14.64 13.86 18 18 18Z" fill="#CDCDCD"/>
</svg>
