<svg width="24" height="24" viewBox="0 0 24 24" fill="none" xmlns="http://www.w3.org/2000/svg">
<path d="M14 8H19V3M18.709 16.3569C17.7772 17.7918 16.4099 18.8902 14.8078 19.4907C13.2058 20.0913 11.453 20.1624 9.80755 19.6937C8.16209 19.225 6.71068 18.2413 5.6656 16.8867C4.62051 15.5321 4.03697 13.878 4.00114 12.1675C3.96531 10.4569 4.47886 8.78001 5.46631 7.38281C6.45375 5.98561 7.86341 4.942 9.48779 4.40479C11.1122 3.86757 12.8659 3.86499 14.4917 4.39795C16.1175 4.93091 17.5294 5.97095 18.5205 7.36556" stroke="white" stroke-width="2" stroke-linecap="round" stroke-linejoin="round"/>
<path d="M10.1588 10.5767C10.3534 10.5781 10.5452 10.6136 10.7341 10.6832C10.923 10.7528 11.0935 10.8665 11.2455 11.0241C11.3989 11.1818 11.521 11.3949 11.6119 11.6634C11.7043 11.9304 11.7512 12.2628 11.7526 12.6605C11.7526 13.0426 11.7142 13.3828 11.6375 13.6811C11.5608 13.978 11.4507 14.2287 11.3073 14.4332C11.1652 14.6378 10.9926 14.7933 10.7895 14.8999C10.5864 15.0064 10.3577 15.0597 10.1034 15.0597C9.84348 15.0597 9.61266 15.0085 9.41096 14.9062C9.20925 14.804 9.04519 14.6626 8.91877 14.4822C8.79235 14.3004 8.71351 14.0916 8.68226 13.8558H9.33212C9.37473 14.0433 9.46138 14.1953 9.59206 14.3118C9.72417 14.4268 9.89462 14.4844 10.1034 14.4844C10.423 14.4844 10.6723 14.3452 10.8513 14.0668C11.0303 13.7869 11.1205 13.3963 11.1219 12.8949H11.0878C11.0139 13.017 10.9216 13.1222 10.8108 13.2102C10.7014 13.2983 10.5786 13.3665 10.4422 13.4148C10.3058 13.4631 10.1602 13.4872 10.0054 13.4872C9.754 13.4872 9.5253 13.4254 9.31934 13.3018C9.11337 13.1783 8.94931 13.0085 8.82715 12.7926C8.70499 12.5767 8.64391 12.3303 8.64391 12.0533C8.64391 11.7777 8.70641 11.5277 8.83141 11.3033C8.95783 11.0788 9.13397 10.9013 9.35982 10.7706C9.58709 10.6385 9.85343 10.5739 10.1588 10.5767ZM10.161 11.1307C9.99476 11.1307 9.8449 11.1719 9.71138 11.2543C9.57928 11.3352 9.47488 11.4453 9.39817 11.5845C9.32147 11.7223 9.28311 11.8757 9.28311 12.0447C9.28311 12.2138 9.32005 12.3672 9.39391 12.505C9.46919 12.6413 9.57147 12.75 9.70073 12.831C9.83141 12.9105 9.98056 12.9503 10.1482 12.9503C10.2732 12.9503 10.3896 12.9261 10.4976 12.8778C10.6056 12.8295 10.7 12.7628 10.781 12.6776C10.8619 12.5909 10.9252 12.4929 10.9706 12.3835C11.0161 12.2741 11.0388 12.1591 11.0388 12.0384C11.0388 11.8778 11.0004 11.7287 10.9237 11.5909C10.8485 11.4531 10.7448 11.3423 10.6127 11.2585C10.4806 11.1733 10.33 11.1307 10.161 11.1307ZM14.0415 15.0724C13.7048 15.071 13.4172 14.9822 13.1785 14.8061C12.9399 14.63 12.7574 14.3736 12.6309 14.0369C12.5045 13.7003 12.4413 13.2947 12.4413 12.8203C12.4413 12.3473 12.5045 11.9432 12.6309 11.608C12.7588 11.2727 12.942 11.017 13.1807 10.8409C13.4207 10.6648 13.7077 10.5767 14.0415 10.5767C14.3753 10.5767 14.6615 10.6655 14.9001 10.843C15.1388 11.0192 15.3213 11.2749 15.4477 11.6101C15.5756 11.9439 15.6395 12.3473 15.6395 12.8203C15.6395 13.2962 15.5763 13.7024 15.4498 14.0391C15.3234 14.3743 15.1409 14.6307 14.9023 14.8082C14.6636 14.9844 14.3767 15.0724 14.0415 15.0724ZM14.0415 14.5036C14.3369 14.5036 14.5677 14.3594 14.7339 14.071C14.9015 13.7827 14.9854 13.3658 14.9854 12.8203C14.9854 12.4581 14.947 12.152 14.8703 11.902C14.795 11.6506 14.6863 11.4602 14.5443 11.331C14.4037 11.2003 14.2361 11.1349 14.0415 11.1349C13.7474 11.1349 13.5166 11.2798 13.349 11.5696C13.1814 11.8594 13.0969 12.2763 13.0954 12.8203C13.0954 13.1839 13.1331 13.4915 13.2084 13.7429C13.2851 13.9929 13.3937 14.1825 13.5344 14.3118C13.675 14.4396 13.844 14.5036 14.0415 14.5036ZM17.3435 12.6094C17.1588 12.6094 16.9905 12.5646 16.8385 12.4751C16.6879 12.3842 16.5672 12.2628 16.4763 12.1108C16.3868 11.9588 16.3421 11.7905 16.3421 11.6058C16.3421 11.4212 16.3868 11.2536 16.4763 11.103C16.5672 10.951 16.6879 10.8303 16.8385 10.7408C16.9905 10.6499 17.1588 10.6044 17.3435 10.6044C17.5281 10.6044 17.6965 10.6499 17.8485 10.7408C18.0004 10.8303 18.1212 10.951 18.2107 11.103C18.3016 11.2536 18.347 11.4212 18.347 11.6058C18.347 11.7905 18.3016 11.9588 18.2107 12.1108C18.1212 12.2628 18.0004 12.3842 17.8485 12.4751C17.6965 12.5646 17.5281 12.6094 17.3435 12.6094ZM17.3435 12.1236C17.4401 12.1236 17.5274 12.1001 17.6056 12.0533C17.6837 12.0064 17.7455 11.9439 17.7909 11.8658C17.8378 11.7876 17.8612 11.701 17.8612 11.6058C17.8612 11.5107 17.8378 11.424 17.7909 11.3459C17.7455 11.2678 17.6837 11.206 17.6056 11.1605C17.5274 11.1136 17.4401 11.0902 17.3435 11.0902C17.2483 11.0902 17.1617 11.1136 17.0835 11.1605C17.0054 11.206 16.9429 11.2678 16.896 11.3459C16.8506 11.424 16.8279 11.5107 16.8279 11.6058C16.8279 11.701 16.8506 11.7876 16.896 11.8658C16.9429 11.9439 17.0054 12.0064 17.0835 12.0533C17.1617 12.1001 17.2483 12.1236 17.3435 12.1236Z" fill="white"/>
</svg>
